<?xml version="1.0" encoding="UTF-8"?>
<svg id="_圖層_1" data-name="圖層_1" xmlns="http://www.w3.org/2000/svg" version="1.1" viewBox="0 0 283.46 283.46">
  <!-- Generator: Adobe Illustrator 30.1.0, SVG Export Plug-In . SVG Version: 2.1.1 Build 136)  -->
  <defs>
    <style>
      .st0 {
        fill: #fff;
      }
    </style>
  </defs>
  <g id="_x35_c28oe">
    <path class="st0" d="M31.41,154.97c.57-2.06,1.13-4.08,1.48-6.07l-1.81-.87c-3.15-1.51-6.31-2.79-8.74-5.44,2.2-2.87,7.42-5.13,10.73-6.34l-.71-2.73-.63-2.51-.89-3.37-8.11-32.35,8.72.57c2.55.14,4.83,1.26,6.37,3.37l18.84,31.2,29.72-4.34,45.23-.23-28.21-106.73,14.08.8c1.88.22,3.46,1.19,4.59,2.69l3.07,5.45,1.27,2.25,1.19,2.07,1.13,1.97,1.26,2.2,29.8,52.21,13.99.05c.89,0,1.59.35,2.24.93,3.42,2.61,5.43,6.13,4.14,10.45-.53,1.77-2.78,6.2-4.78,6.26l-6.2.69,10.39,19.15,23.37-1.35c8.44-.49,16.77-.12,25.17.72,13.35,1.44,29.21,4.97,36.31,17.74-.86,1.65-2.03,3.03-3.32,4.41-8.52,9.18-23.22,11.96-35.22,13.09-15.54,1.28-30.9.38-46.43-.98l-10.53,19.06,6.02.74c.81.07,1.52.51,2.03,1.15,2.89,3.58,4.5,7.85,1.94,12.12-1.24,1.71-2.8,3.57-4.86,4.32l-14.68-.02-38.06,65.53c-1.07,1.61-2.68,2.83-4.67,2.94l-14.21.77,8.47-30.94,1.43-5.27.51-1.8c.38-1.35.8-2.66,1.14-4.03l.8-3.2.84-3.02.58-2.1.84-3.12c.18-.67.36-1.3.59-1.96.43-1.15.55-2.29.88-3.5l12.95-47.58-45.2-.59-29.71-4.56-18.22,29.68c-1.64,2.67-3.79,4.54-7.01,4.66l-8.53.56-.38-.29,4.4-16.87.55-2.04.54-2.08.4-1.66.88-3.31.46-1.82,1.2-4.68.56-2.02Z"/>
  </g>
</svg>