<?xml version="1.0" encoding="UTF-8"?>
<svg id="_圖層_2" data-name="圖層_2" xmlns="http://www.w3.org/2000/svg" version="1.1" viewBox="0 0 240 80">
  <!-- Generator: Adobe Illustrator 30.1.0, SVG Export Plug-In . SVG Version: 2.1.1 Build 136)  -->
  <defs>
    <style>
      .st0 {
        fill-rule: evenodd;
      }

      .st0, .st1 {
        fill: #fff;
      }

      .st1 {
        font-family: CondorExtd-BlackItalic, CondorExtd;
        font-size: 17px;
        font-style: italic;
        font-weight: 800;
        letter-spacing: .12em;
      }
    </style>
  </defs>
  <path class="st0" d="M14.01,73.23l16.17-7.91.53-5.09c-9.69-6.88-9.24-20.7,1.46-28.28,2.33-1.65,2.94-1.63,4.39-2.54-2.25.27-5.97,2.31-7.7,3.38-5.54,3.43-10.31,9.52-12.34,16.28l-2.5,24.15ZM46.05,51.7c10.32-1.98,17.83-8.54,18.95-19.31v-.16c1.29-12.26-6.99-19.46-20.99-19.46h-23.73l-1.14,10.99.77-.76c2.33-2.59,6.72-5.36,9.98-6.65,4.78-1.9,10.64-2.39,15.63-.97,8.45,2.4,13.74,11.69,11.86,18.71-6.09-6.95-22.34.87-17.4,12.14,1.16,2.64,3.38,4.35,6.07,5.47h0ZM18.86,26.47l-.43,4.17c.83-.83,2.45-2.54,3.66-3.39,5.12-3.59,10.22-6.18,17.12-5.81-.3,2.18.28,3.94,2.61,4.26,2.24.3,4.05-1.1,4.69-2.88l1.92.71c-1.25-1.32-5.26-2.65-7.66-3.1-3.1-.59-6.99-.53-10.16.16-4.74,1.03-7.88,2.96-11.49,5.68-.09.07-.18.13-.25.19h0Z"/>
  <text class="st1" transform="translate(37.43 69.43)"><tspan x="0" y="0">HOENIX AIR</tspan></text>
</svg>